<?xml version="1.0" encoding="utf-8"?>
<!-- Generator: Adobe Illustrator 27.5.0, SVG Export Plug-In . SVG Version: 6.00 Build 0)  -->
<svg version="1.1" xmlns="http://www.w3.org/2000/svg" xmlns:xlink="http://www.w3.org/1999/xlink" x="0px" y="0px"
	 viewBox="0 0 750 500" style="enable-background:new 0 0 750 500;" xml:space="preserve">
<g id="BACKGROUND">
</g>
<g id="OBJECTS">
	<rect style="fill:#FFFFFF;" width="750" height="500"/>
	<g>
		<defs>
			<rect id="SVGID_1_" width="750" height="500"/>
		</defs>
		<clipPath id="SVGID_00000040541997409460902990000017910107714498908073_">
			<use xlink:href="#SVGID_1_"  style="overflow:visible;"/>
		</clipPath>
		<g style="clip-path:url(#SVGID_00000040541997409460902990000017910107714498908073_);">
			<circle style="fill:#E89A46;" cx="375" cy="250" r="502.705"/>
			<circle style="fill:#C7683C;" cx="375" cy="250" r="470.328"/>
			<circle style="fill:#BD4B45;" cx="375" cy="250" r="437.951"/>
			<circle style="fill:#6B2D49;" cx="375" cy="250" r="405.573"/>
			<circle style="fill:#A52B4C;" cx="375" cy="250" r="373.196"/>
			<circle style="fill:#E89A46;" cx="375" cy="250" r="340.819"/>
			<circle style="fill:#C7683C;" cx="375" cy="250" r="308.441"/>
			<circle style="fill:#BD4B45;" cx="375" cy="250" r="276.064"/>
			<path style="fill:#6B2D49;" d="M618.687,250c0,129.408-100.871,235.257-228.276,243.207c-5.096,0.318-10.235,0.48-15.411,0.48
				C467.533,484,552.533,420,582.533,329c33-96-2-210-87-265c99,76,122,228,39,328c-51,62-128,93-207,84c-91-10-168-74-197-160
				c-44-127,32-271,161-310c131-39,277,42,315.635,169.748c1.503,4.705,2.862,9.451,4.076,14.25
				C616.105,209.193,618.687,229.295,618.687,250z"/>
			<path style="fill:#A52B4C;" d="M144.363,325.754C126.533,281,122.533,229,137.533,183c-28,121,57,254,184,270c59,8,118-9,164-48
				c70-59,93-164,46-242c36,78,17,176-52,233c-39,32-86,47-135,45c-107-4-195-103-190-210c4-95,75-179,171-195c76-13,151,14,201,73
				c59,70,68,169,22,248c-38,66-107,108-182,112c-90,5-178-48-216.191-129.491C148.166,334.92,146.174,330.331,144.363,325.754z"/>
			<path style="fill:#E89A46;" d="M209.733,112.384C239.533,81,276.533,54,320.533,49c-80,21-143,94-147,178c-4,76,42,149,113,177
				c65,25,143,10,190-45c24-28,40-63,38-100c-6,52-36,99-83,126c-83,47-191,6-227-79c-22-54-18-114,17-164c35-49,89-75,147-73
				c79,3,150,59,168,139c20,90-31,181-114,213c-91,35-199-8-241-96c-32-67-23-149,22.931-206.203
				C206.187,116.605,207.932,114.48,209.733,112.384z"/>
			<path style="fill:#C7683C;" d="M391.312,79.493C430.533,88,469.533,108,492.533,142c-54-60-147-79-217-28c-42,31-65,78-63,128
				c2,57,40,109,94,128c53,18,117,0,147-47c-29,30-68,49-111,45c-42-5-78-29-99-66c-31-55-16-124,32-165c66-56,169-35,210,40
				c36,63,20,144-39,189c-36,27-77,37-121,29c-56-10-99-49-118-100c-17-46-12-97,14-140c34-55,97-85,160.41-76.903
				C385.126,78.478,388.241,78.942,391.312,79.493z"/>
			<path style="fill:#BD4B45;" d="M484.884,192.63C500.533,226,500.533,267,484.533,300c23-69-12-151-85-171c-33-9-66-4-95,13
				c-45,27-64,82-47,130c17,46,73,81,120,59c-47,11-97-18-110-66c-14-51,17-105,68-119c30-8,61-3,87,15c36,26,52,68,43,111
				c-10,48-50,81-97,88c-66,9-129-43-134-109c-4-51,23-100,68-124c63-34,147-7,178.256,57.115
				C482.28,186.953,483.642,189.783,484.884,192.63z"/>
			<path style="fill:#6B2D49;" d="M447.289,299.464C431.533,325,404.533,348,372.533,349c53-12,92-69,76-123c-10-31-34-55-67-62
				c-28-5-55,4-74,25c-12,13-17,30-18,47c0,25,16,53,42,58c-20-13-33-35-31-59c3-31,30-55,60-56c25,0,48,12,61,34c15,26,13,57-6,81
				c-17,21-42,32-68,30c-32-3-59-24-71-54c-20-52,15-111,70-120c30-5,60,4,82,24c32,29,41,77,23.513,116.093
				C450.585,293.379,448.997,296.502,447.289,299.464z"/>
			<path style="fill:#A52B4C;" d="M362.756,316.607C341.533,319,317.533,312,303.533,295c33,26,87,20,105-20c6-14,7-31,1-45
				c-7-15-21-27-38-29c-16-1-33,4-40,19c-5,10-7,26,4,32c-2-14,3-28,16-34c11-4,23-2,32,6c13,13,13,34,2,48c-12,14-30,18-47,12
				c-20-8-32-28-30-50c2-21,16-38,36-45c19-7,39-3,56,9c18,14,26,35,24,57c-3,27-23,52-50.431,59.344
				C370.245,315.447,366.447,316.196,362.756,316.607z"/>
		</g>
	</g>
</g>
</svg>
